<?xml version="1.0" encoding="iso-8859-1"?>
<!-- Generator: Adobe Illustrator 18.1.1, SVG Export Plug-In . SVG Version: 6.00 Build 0)  -->
<svg version="1.1" id="Capa_1" xmlns="http://www.w3.org/2000/svg" xmlns:xlink="http://www.w3.org/1999/xlink" x="0px" y="0px"
	 viewBox="0 0 15 15" style="enable-background:new 0 0 15 15;" xml:space="preserve">
<g>
	<g>
		<g>
			<path style="fill:#010002;" d="M7.5,0C3.358,0,0,3.358,0,7.5C0,11.643,3.358,15,7.5,15c4.143,0,7.5-3.357,7.5-7.5
				C15,3.358,11.643,0,7.5,0z M7.5,14C3.916,14,1,11.084,1,7.5S3.916,1,7.5,1S14,3.916,14,7.5S11.084,14,7.5,14z"/>
			<path style="fill:#010002;" d="M10.268,4.025L7.52,6.774L5.054,4.025c-0.195-0.195-0.512-0.195-0.707,0s-0.195,0.512,0,0.707
				l2.466,2.749l-2.787,2.787c-0.195,0.195-0.195,0.513,0,0.707c0.195,0.195,0.512,0.195,0.707,0l2.749-2.748l2.466,2.748
				c0.194,0.195,0.512,0.195,0.706,0c0.195-0.194,0.195-0.512,0-0.707L8.187,7.52l2.787-2.788c0.195-0.195,0.195-0.512,0-0.707
				S10.463,3.83,10.268,4.025z"/>
		</g>
	</g>
</g>
<g>
</g>
<g>
</g>
<g>
</g>
<g>
</g>
<g>
</g>
<g>
</g>
<g>
</g>
<g>
</g>
<g>
</g>
<g>
</g>
<g>
</g>
<g>
</g>
<g>
</g>
<g>
</g>
<g>
</g>
</svg>
